solid "mesh_0"
facet normal 0.000000000000000 0.000000000000000 -1.000000000000000
outer loop
vertex 0.500000000000000 -0.500000000000000 -0.500000000000000
vertex -0.500000000000000 -0.500000000000000 -0.500000000000000
vertex -0.500000000000000 0.500000000000000 -0.500000000000000
endloop
endfacet
facet normal 0.000000000000000 0.000000000000000 -1.000000000000000
outer loop
vertex 0.500000000000000 -0.500000000000000 -0.500000000000000
vertex -0.500000000000000 0.500000000000000 -0.500000000000000
vertex 0.500000000000000 0.500000000000000 -0.500000000000000
endloop
endfacet
facet normal 0.000000000000000 0.000000000000000 1.000000000000000
outer loop
vertex -0.500000000000000 -0.500000000000000 0.500000000000000
vertex 0.500000000000000 -0.500000000000000 0.500000000000000
vertex 0.449664460588610 0.005093274500812 0.500000000000000
endloop
endfacet
facet normal -1.000000000000000 0.000000000000000 0.000000000000000
outer loop
vertex -0.500000000000000 -0.500000000000000 -0.500000000000000
vertex -0.500000000000000 -0.500000000000000 0.500000000000000
vertex -0.500000000000000 0.500000000000000 0.500000000000000
endloop
endfacet
facet normal -1.000000000000000 0.000000000000000 0.000000000000000
outer loop
vertex -0.500000000000000 -0.500000000000000 -0.500000000000000
vertex -0.500000000000000 0.500000000000000 0.500000000000000
vertex -0.500000000000000 0.500000000000000 -0.500000000000000
endloop
endfacet
facet normal 1.000000000000000 0.000000000000000 0.000000000000000
outer loop
vertex 0.500000000000000 -0.500000000000000 0.500000000000000
vertex 0.500000000000000 -0.500000000000000 -0.500000000000000
vertex 0.500000000000000 0.500000000000000 -0.500000000000000
endloop
endfacet
facet normal 1.000000000000000 0.000000000000000 0.000000000000000
outer loop
vertex 0.500000000000000 -0.500000000000000 0.500000000000000
vertex 0.500000000000000 0.500000000000000 -0.500000000000000
vertex 0.500000000000000 0.248322302943049 0.070417454493159
endloop
endfacet
facet normal 0.000000000000000 -1.000000000000000 0.000000000000000
outer loop
vertex -0.500000000000000 -0.500000000000000 -0.500000000000000
vertex 0.500000000000000 -0.500000000000000 -0.500000000000000
vertex 0.500000000000000 -0.500000000000000 0.500000000000000
endloop
endfacet
facet normal 0.000000000000000 -1.000000000000000 0.000000000000000
outer loop
vertex -0.500000000000000 -0.500000000000000 -0.500000000000000
vertex 0.500000000000000 -0.500000000000000 0.500000000000000
vertex -0.500000000000000 -0.500000000000000 0.500000000000000
endloop
endfacet
facet normal 0.000000000000000 1.000000000000000 0.000000000000000
outer loop
vertex 0.500000000000000 0.500000000000000 0.005093274500812
vertex 0.500000000000000 0.500000000000000 -0.500000000000000
vertex 0.449664460588610 0.500000000000000 0.005093274500812
endloop
endfacet
facet normal 0.000000000000000 1.000000000000000 0.000000000000000
outer loop
vertex -0.500000000000000 0.500000000000000 0.500000000000000
vertex 0.500000000000000 0.500000000000000 -0.500000000000000
vertex -0.500000000000000 0.500000000000000 -0.500000000000000
endloop
endfacet
facet normal 0.000000000000000 0.000000000000000 1.000000000000000
outer loop
vertex -0.500000000000000 0.500000000000000 0.500000000000000
vertex -0.500000000000000 -0.500000000000000 0.500000000000000
vertex 0.005093274500812 0.449664460588610 0.500000000000000
endloop
endfacet
facet normal 0.000000000000000 0.000000000000000 1.000000000000000
outer loop
vertex 0.005093274500812 0.449664460588610 0.500000000000000
vertex -0.500000000000000 -0.500000000000000 0.500000000000000
vertex 0.015626425862832 0.398619829225051 0.500000000000000
endloop
endfacet
facet normal 0.000000000000000 0.000000000000000 1.000000000000000
outer loop
vertex 0.015626425862832 0.398619829225051 0.500000000000000
vertex -0.500000000000000 -0.500000000000000 0.500000000000000
vertex 0.025866932429023 0.348993381765829 0.500000000000000
endloop
endfacet
facet normal 0.000000000000000 0.000000000000000 1.000000000000000
outer loop
vertex 0.025866932429023 0.348993381765829 0.500000000000000
vertex -0.500000000000000 -0.500000000000000 0.500000000000000
vertex 0.048828236232266 0.297107587437260 0.500000000000000
endloop
endfacet
facet normal 0.000000000000000 0.000000000000000 1.000000000000000
outer loop
vertex 0.070417454493159 0.248322302943049 0.500000000000000
vertex -0.500000000000000 -0.500000000000000 0.500000000000000
vertex 0.111147019314776 0.195232971030711 0.500000000000000
endloop
endfacet
facet normal 0.000000000000000 0.000000000000000 1.000000000000000
outer loop
vertex 0.500000000000000 -0.500000000000000 0.500000000000000
vertex 0.500000000000000 0.005093274500812 0.500000000000000
vertex 0.449664460588610 0.005093274500812 0.500000000000000
endloop
endfacet
facet normal 0.000000000000000 0.000000000000000 1.000000000000000
outer loop
vertex -0.500000000000000 -0.500000000000000 0.500000000000000
vertex 0.449664460588610 0.005093274500812 0.500000000000000
vertex 0.398619829225051 0.015626425862832 0.500000000000000
endloop
endfacet
facet normal 0.000000000000000 0.000000000000000 1.000000000000000
outer loop
vertex 0.248322302943049 0.070417454493159 0.500000000000000
vertex -0.500000000000000 -0.500000000000000 0.500000000000000
vertex 0.297107587437260 0.048828236232266 0.500000000000000
endloop
endfacet
facet normal 0.000000000000000 0.000000000000000 1.000000000000000
outer loop
vertex -0.500000000000000 -0.500000000000000 0.500000000000000
vertex 0.248322302943049 0.070417454493159 0.500000000000000
vertex 0.195232971030711 0.111147019314776 0.500000000000000
endloop
endfacet
facet normal 0.000000000000000 1.000000000000000 0.000000000000000
outer loop
vertex 0.128691254063139 0.500000000000000 0.172364774285102
vertex 0.147651224120268 0.500000000000000 0.147651224120268
vertex -0.500000000000000 0.500000000000000 0.500000000000000
endloop
endfacet
facet normal 0.000000000000000 1.000000000000000 0.000000000000000
outer loop
vertex 0.128691254063139 0.500000000000000 0.172364774285102
vertex -0.500000000000000 0.500000000000000 0.500000000000000
vertex 0.111147019314776 0.500000000000000 0.195232971030711
endloop
endfacet
facet normal 0.000000000000000 1.000000000000000 0.000000000000000
outer loop
vertex 0.297107587437260 0.500000000000000 0.048828236232266
vertex 0.500000000000000 0.500000000000000 -0.500000000000000
vertex 0.248322302943049 0.500000000000000 0.070417454493159
endloop
endfacet
facet normal 0.000000000000000 1.000000000000000 0.000000000000000
outer loop
vertex 0.398619829225051 0.500000000000000 0.015626425862832
vertex 0.500000000000000 0.500000000000000 -0.500000000000000
vertex 0.348993381765829 0.500000000000000 0.025866932429023
endloop
endfacet
facet normal 0.000000000000000 1.000000000000000 0.000000000000000
outer loop
vertex 0.005093274500812 0.500000000000000 0.500000000000000
vertex 0.005093274500812 0.500000000000000 0.449664460588610
vertex -0.500000000000000 0.500000000000000 0.500000000000000
endloop
endfacet
facet normal 0.000000000000000 1.000000000000000 0.000000000000000
outer loop
vertex -0.500000000000000 0.500000000000000 0.500000000000000
vertex 0.070417454493159 0.500000000000000 0.248322302943049
vertex 0.111147019314776 0.500000000000000 0.195232971030711
endloop
endfacet
facet normal 0.000000000000000 1.000000000000000 0.000000000000000
outer loop
vertex -0.500000000000000 0.500000000000000 0.500000000000000
vertex 0.048828236232266 0.500000000000000 0.297107587437260
vertex 0.070417454493159 0.500000000000000 0.248322302943049
endloop
endfacet
facet normal 0.000000000000000 1.000000000000000 0.000000000000000
outer loop
vertex -0.500000000000000 0.500000000000000 0.500000000000000
vertex 0.025866932429023 0.500000000000000 0.348993381765829
vertex 0.048828236232266 0.500000000000000 0.297107587437260
endloop
endfacet
facet normal 0.000000000000000 1.000000000000000 0.000000000000000
outer loop
vertex -0.500000000000000 0.500000000000000 0.500000000000000
vertex 0.015626425862832 0.500000000000000 0.398619829225051
vertex 0.025866932429023 0.500000000000000 0.348993381765829
endloop
endfacet
facet normal 0.000000000000000 1.000000000000000 0.000000000000000
outer loop
vertex -0.500000000000000 0.500000000000000 0.500000000000000
vertex 0.005093274500812 0.500000000000000 0.449664460588610
vertex 0.015626425862832 0.500000000000000 0.398619829225051
endloop
endfacet
facet normal 0.000000000000000 1.000000000000000 0.000000000000000
outer loop
vertex 0.192407631147958 0.500000000000000 0.113314589705146
vertex -0.500000000000000 0.500000000000000 0.500000000000000
vertex 0.147651224120268 0.500000000000000 0.147651224120268
endloop
endfacet
facet normal 1.000000000000000 0.000000000000001 0.000000000000000
outer loop
vertex 0.500000000000000 0.500000000000000 -0.500000000000000
vertex 0.500000000000000 0.500000000000000 0.005093274500812
vertex 0.500000000000000 0.449664460588610 0.005093274500812
endloop
endfacet
facet normal 1.000000000000000 0.000000000000000 0.000000000000000
outer loop
vertex 0.500000000000000 0.005093274500812 0.500000000000000
vertex 0.500000000000000 -0.500000000000000 0.500000000000000
vertex 0.500000000000000 0.005093274500812 0.449664460588610
endloop
endfacet
facet normal 1.000000000000000 0.000000000000000 0.000000000000000
outer loop
vertex 0.500000000000000 0.500000000000000 -0.500000000000000
vertex 0.500000000000000 0.449664460588610 0.005093274500812
vertex 0.500000000000000 0.398619829225051 0.015626425862832
endloop
endfacet
facet normal 1.000000000000000 0.000000000000000 0.000000000000000
outer loop
vertex 0.500000000000000 0.500000000000000 -0.500000000000000
vertex 0.500000000000000 0.398619829225051 0.015626425862832
vertex 0.500000000000000 0.348993381765829 0.025866932429023
endloop
endfacet
facet normal 1.000000000000000 0.000000000000000 0.000000000000000
outer loop
vertex 0.500000000000000 -0.500000000000000 0.500000000000000
vertex 0.500000000000000 0.192407631147958 0.113314589705146
vertex 0.500000000000000 0.147651224120268 0.147651224120268
endloop
endfacet
facet normal 1.000000000000000 0.000000000000000 0.000000000000000
outer loop
vertex 0.500000000000000 0.500000000000000 -0.500000000000000
vertex 0.500000000000000 0.348993381765829 0.025866932429023
vertex 0.500000000000000 0.297107587437260 0.048828236232266
endloop
endfacet
facet normal 1.000000000000000 0.000000000000000 0.000000000000000
outer loop
vertex 0.500000000000000 0.192407631147958 0.113314589705146
vertex 0.500000000000000 -0.500000000000000 0.500000000000000
vertex 0.500000000000000 0.195232971030711 0.111147019314776
endloop
endfacet
facet normal 1.000000000000000 0.000000000000000 0.000000000000000
outer loop
vertex 0.500000000000000 -0.500000000000000 0.500000000000000
vertex 0.500000000000000 0.248322302943049 0.070417454493159
vertex 0.500000000000000 0.195232971030711 0.111147019314776
endloop
endfacet
facet normal 1.000000000000000 0.000000000000000 0.000000000000000
outer loop
vertex 0.500000000000000 -0.500000000000000 0.500000000000000
vertex 0.500000000000000 0.128691254063139 0.172364774285101
vertex 0.500000000000000 0.111147019314776 0.195232971030711
endloop
endfacet
facet normal 1.000000000000000 0.000000000000000 0.000000000000000
outer loop
vertex 0.500000000000000 0.005093274500812 0.449664460588610
vertex 0.500000000000000 -0.500000000000000 0.500000000000000
vertex 0.500000000000000 0.015626425862832 0.398619829225051
endloop
endfacet
facet normal 1.000000000000000 0.000000000000000 0.000000000000000
outer loop
vertex 0.500000000000000 0.025866932429023 0.348993381765829
vertex 0.500000000000000 -0.500000000000000 0.500000000000000
vertex 0.500000000000000 0.048828236232266 0.297107587437260
endloop
endfacet
facet normal 0.000000000000000 0.000000000000000 1.000000000000000
outer loop
vertex 0.147651224120268 0.147651224120268 0.500000000000000
vertex -0.500000000000000 -0.500000000000000 0.500000000000000
vertex 0.195232971030711 0.111147019314776 0.500000000000000
endloop
endfacet
facet normal 0.000000000000000 0.000000000000000 1.000000000000000
outer loop
vertex 0.147651224120268 0.147651224120268 0.500000000000000
vertex 0.111147019314776 0.195232971030711 0.500000000000000
vertex -0.500000000000000 -0.500000000000000 0.500000000000000
endloop
endfacet
facet normal 0.000000000000000 0.000000000000000 1.000000000000000
outer loop
vertex 0.005093274500812 0.500000000000000 0.500000000000000
vertex -0.500000000000000 0.500000000000000 0.500000000000000
vertex 0.005093274500812 0.449664460588610 0.500000000000000
endloop
endfacet
facet normal 1.000000000000000 0.000000000000000 0.000000000000000
outer loop
vertex 0.500000000000000 0.070417454493159 0.248322302943049
vertex 0.500000000000000 -0.500000000000000 0.500000000000000
vertex 0.500000000000000 0.111147019314776 0.195232971030711
endloop
endfacet
facet normal 0.000000000000000 1.000000000000000 0.000000000000000
outer loop
vertex 0.248322302943049 0.500000000000000 0.070417454493159
vertex -0.500000000000000 0.500000000000000 0.500000000000000
vertex 0.195232971030711 0.500000000000000 0.111147019314776
endloop
endfacet
facet normal 0.000000000000000 0.000000000000000 1.000000000000000
outer loop
vertex 0.048828236232266 0.297107587437260 0.500000000000000
vertex -0.500000000000000 -0.500000000000000 0.500000000000000
vertex 0.070417454493159 0.248322302943049 0.500000000000000
endloop
endfacet
facet normal 0.000000000000000 0.000000000000000 1.000000000000000
outer loop
vertex 0.297107587437260 0.048828236232266 0.500000000000000
vertex -0.500000000000000 -0.500000000000000 0.500000000000000
vertex 0.348993381765829 0.025866932429023 0.500000000000000
endloop
endfacet
facet normal 0.000000000000000 0.000000000000000 1.000000000000000
outer loop
vertex 0.398619829225051 0.015626425862832 0.500000000000000
vertex 0.348993381765829 0.025866932429023 0.500000000000000
vertex -0.500000000000000 -0.500000000000000 0.500000000000000
endloop
endfacet
facet normal 0.000000000000000 1.000000000000000 0.000000000000000
outer loop
vertex 0.348993381765829 0.500000000000000 0.025866932429023
vertex 0.500000000000000 0.500000000000000 -0.500000000000000
vertex 0.297107587437260 0.500000000000000 0.048828236232266
endloop
endfacet
facet normal 0.000000000000000 1.000000000000000 0.000000000000000
outer loop
vertex -0.500000000000000 0.500000000000000 0.500000000000000
vertex 0.192407631147958 0.500000000000000 0.113314589705146
vertex 0.195232971030711 0.500000000000000 0.111147019314776
endloop
endfacet
facet normal 0.000000000000000 1.000000000000000 0.000000000000000
outer loop
vertex 0.449664460588610 0.500000000000000 0.005093274500812
vertex 0.500000000000000 0.500000000000000 -0.500000000000000
vertex 0.398619829225051 0.500000000000000 0.015626425862832
endloop
endfacet
facet normal 1.000000000000000 0.000000000000000 0.000000000000000
outer loop
vertex 0.500000000000000 0.297107587437260 0.048828236232266
vertex 0.500000000000000 0.248322302943049 0.070417454493159
vertex 0.500000000000000 0.500000000000000 -0.500000000000000
endloop
endfacet
facet normal 1.000000000000000 0.000000000000000 0.000000000000000
outer loop
vertex 0.500000000000000 0.015626425862832 0.398619829225051
vertex 0.500000000000000 -0.500000000000000 0.500000000000000
vertex 0.500000000000000 0.025866932429023 0.348993381765829
endloop
endfacet
facet normal 0.000000000000000 1.000000000000000 0.000000000000000
outer loop
vertex 0.500000000000000 0.500000000000000 -0.500000000000000
vertex -0.500000000000000 0.500000000000000 0.500000000000000
vertex 0.248322302943049 0.500000000000000 0.070417454493159
endloop
endfacet
facet normal 1.000000000000000 0.000000000000000 0.000000000000000
outer loop
vertex 0.500000000000000 0.048828236232266 0.297107587437260
vertex 0.500000000000000 -0.500000000000000 0.500000000000000
vertex 0.500000000000000 0.070417454493159 0.248322302943049
endloop
endfacet
facet normal 1.000000000000000 0.000000000000000 0.000000000000000
outer loop
vertex 0.500000000000000 0.143396915139014 0.153196542921307
vertex 0.500000000000000 -0.500000000000000 0.500000000000000
vertex 0.500000000000000 0.147651224120268 0.147651224120268
endloop
endfacet
facet normal 1.000000000000000 0.000000000000000 0.000000000000000
outer loop
vertex 0.500000000000000 0.143396915139014 0.153196542921307
vertex 0.500000000000000 0.128691254063139 0.172364774285101
vertex 0.500000000000000 -0.500000000000000 0.500000000000000
endloop
endfacet
endsolid "mesh_0"
